<svg version="1.2" xmlns="http://www.w3.org/2000/svg" viewBox="0 0 512 512" width="512" height="512">
	<title>database-server-svgrepo-com-svg</title>
	<style>
		.s0 { fill: #ffffff } 
	</style>
	<g id="Layer">
		<g id="Layer">
			<path id="Layer" fill-rule="evenodd" class="s0" d="m465.7 114.3v19.2c9.5 3.4 16.4 12.4 16.4 23.1v66.7c0 10.6-6.9 19.7-16.4 23.1v19.2c9.5 3.4 16.4 12.4 16.4 23.1v66.7c0 10.6-6.9 19.7-16.4 23.1v19.2c9.5 3.3 16.4 12.4 16.4 23.1v66.7c0 13.5-11 24.5-24.6 24.5h-403c-13.6 0-24.6-11-24.6-24.5v-66.7c0-10.7 6.9-19.8 16.4-23.1v-19.2c-9.5-3.4-16.4-12.5-16.4-23.1v-66.7c0-10.7 6.9-19.8 16.4-23.1v-19.2c-9.5-3.4-16.4-12.5-16.4-23.1v-66.7c0-10.7 6.9-19.7 16.4-23.1v-19.2c-9.5-3.3-16.4-12.4-16.4-23.1v-66.7c0-13.5 11-24.5 24.6-24.5h403c13.6 0 24.6 11 24.6 24.5v66.7c0 10.7-6.9 19.8-16.4 23.1zm-419.4 373.4c0 4.4 3.6 8 8 8h403.4c4.4 0 8-3.6 8-8v-67.1c0-4.4-3.6-8-8-8h-403.4c-4.4 0-8 3.6-8 8zm16.3-91.4h386.8v-16.3h-386.8zm-16.3-40.8c0 4.5 3.6 8 8 8h403.4c4.4 0 8-3.5 8-8v-67c0-4.4-3.6-8-8-8h-403.4c-4.4 0-8 3.6-8 8zm419.4-199c0-4.5-3.6-8.1-8.2-8.1h-403c-4.6 0-8.2 3.6-8.2 8.1v66.7c0 4.5 3.6 8.2 8.2 8.2h337.7c4.5 0 8.2 3.7 8.2 8.2 0 4.5-3.7 8.1-8.2 8.1h-329.6v16.4h386.8v-16.4h-24.5c-4.5 0-8.2-3.6-8.2-8.1 0-4.5 3.7-8.2 8.2-8.2h32.6c4.6 0 8.2-3.7 8.2-8.2zm-403.1-24.5h386.8v-16.3h-386.8zm-16.3-40.7c0 4.4 3.6 8 8 8h403.4c4.4 0 8-3.6 8-8v-67.1c0-4.4-3.6-8-8-8h-403.4c-4.4 0-8 3.6-8 8z"/>
		</g>
	</g>
	<g id="Layer">
		<g id="Layer">
			<path id="Layer" class="s0" d="m256 32.7h-136.2c-4.5 0-8.2 3.6-8.2 8.2 0 4.5 3.7 8.1 8.2 8.1h136.2c4.5 0 8.2-3.6 8.2-8.1 0-4.6-3.7-8.2-8.2-8.2z"/>
		</g>
	</g>
	<g id="Layer">
		<g id="Layer">
			<path id="Layer" class="s0" d="m87.1 32.7h-16.3c-4.5 0-8.2 3.6-8.2 8.2 0 4.5 3.7 8.1 8.2 8.1h16.3c4.5 0 8.2-3.6 8.2-8.1 0-4.6-3.7-8.2-8.2-8.2z"/>
		</g>
	</g>
	<g id="Layer">
		<g id="Layer">
			<path id="Layer" class="s0" d="m256 164.8h-136.2c-4.5 0-8.2 3.6-8.2 8.1 0 4.5 3.7 8.2 8.2 8.2h136.2c4.5 0 8.2-3.7 8.2-8.2 0-4.5-3.7-8.1-8.2-8.1z"/>
		</g>
	</g>
	<g id="Layer">
		<g id="Layer">
			<path id="Layer" class="s0" d="m87.1 164.8h-16.3c-4.5 0-8.2 3.6-8.2 8.1 0 4.5 3.7 8.2 8.2 8.2h16.3c4.5 0 8.2-3.7 8.2-8.2 0-4.5-3.7-8.1-8.2-8.1z"/>
		</g>
	</g>
	<g id="Layer">
		<g id="Layer">
			<path id="Layer" class="s0" d="m256 296.9h-136.2c-4.5 0-8.2 3.6-8.2 8.1 0 4.5 3.7 8.2 8.2 8.2h136.2c4.5 0 8.2-3.7 8.2-8.2 0-4.5-3.7-8.1-8.2-8.1z"/>
		</g>
	</g>
	<g id="Layer">
		<g id="Layer">
			<path id="Layer" class="s0" d="m87.1 296.9h-16.3c-4.5 0-8.2 3.6-8.2 8.1 0 4.5 3.7 8.2 8.2 8.2h16.3c4.5 0 8.2-3.7 8.2-8.2 0-4.5-3.7-8.1-8.2-8.1z"/>
		</g>
	</g>
	<g id="Layer">
		<g id="Layer">
			<path id="Layer" class="s0" d="m256 429h-136.2c-4.5 0-8.2 3.6-8.2 8.1 0 4.5 3.7 8.2 8.2 8.2h136.2c4.5 0 8.2-3.7 8.2-8.2 0-4.5-3.7-8.1-8.2-8.1z"/>
		</g>
	</g>
	<g id="Layer">
		<g id="Layer">
			<path id="Layer" class="s0" d="m87.1 429h-16.3c-4.5 0-8.2 3.6-8.2 8.1 0 4.5 3.7 8.2 8.2 8.2h16.3c4.5 0 8.2-3.7 8.2-8.2 0-4.5-3.7-8.1-8.2-8.1z"/>
		</g>
	</g>
</svg>