<svg version="1.2" xmlns="http://www.w3.org/2000/svg" viewBox="0 0 1000 1000" width="1000" height="1000">
	<title>layers-svgrepo-com-svg</title>
	<style>
		.s0 { fill: #2c98f0 } 
		.s1 { opacity: .7;fill: #2c98f0 } 
		.s2 { opacity: .4;fill: #2c98f0 } 
	</style>
	<path id="Layer" class="s0" d="m207.5 403.5c-82.8-33.1-124.2-49.6-124.2-70.2 0-20.5 41.4-37.1 124.2-70.2l117-46.8c82.7-33.1 124.1-49.6 175.5-49.6 51.4 0 92.8 16.5 175.5 49.6l117 46.8c82.8 33.1 124.2 49.7 124.2 70.2 0 20.6-41.4 37.1-124.2 70.2l-117 46.9c-82.7 33-124.1 49.6-175.5 49.6-51.4 0-92.8-16.6-175.5-49.6z"/>
	<path id="Layer" fill-rule="evenodd" class="s0" d="m83.3 333.3c0 20.6 41.4 37.1 124.2 70.2l117 46.9c82.7 33 124.1 49.6 175.5 49.6 51.4 0 92.8-16.6 175.5-49.6l117-46.9c82.8-33.1 124.2-49.6 124.2-70.2 0-20.5-41.4-37.1-124.2-70.2l-117-46.8c-82.7-33.1-124.1-49.6-175.5-49.6-51.4 0-92.8 16.5-175.5 49.6l-117 46.8c-82.8 33.1-124.2 49.7-124.2 70.2z"/>
	<path id="Layer" class="s1" d="m240.3 416.7l-32.8 13.1c-82.8 33.1-124.2 49.6-124.2 70.2 0 20.6 41.4 37.1 124.2 70.2l117 46.8c82.7 33.1 124.1 49.7 175.5 49.7 51.4 0 92.8-16.6 175.5-49.7l117-46.8c82.8-33.1 124.2-49.6 124.2-70.2 0-20.6-41.4-37.1-124.2-70.2l-32.8-13.1-84.2 33.7c-82.7 33-124.1 49.6-175.5 49.6-51.4 0-92.8-16.6-175.5-49.6z"/>
	<path id="Layer" class="s2" d="m240.3 583.3l-32.8 13.2c-82.8 33.1-124.2 49.6-124.2 70.2 0 20.5 41.4 37.1 124.2 70.2l117 46.8c82.7 33.1 124.1 49.6 175.5 49.6 51.4 0 92.8-16.5 175.5-49.6l117-46.8c82.8-33.1 124.2-49.7 124.2-70.2 0-20.6-41.4-37.1-124.2-70.2l-32.8-13.2-84.2 33.7c-82.7 33.1-124.1 49.7-175.5 49.7-51.4 0-92.8-16.6-175.5-49.7z"/>
</svg>