<svg version="1.2" xmlns="http://www.w3.org/2000/svg" viewBox="0 0 512 512" width="512" height="512">
	<title>all-covered-svgrepo-com-svg</title>
	<style>
		.s0 { fill: #ffffff } 
	</style>
	<path id="Layer" class="s0" d="m345.3 390.4l-21.8-30.1c-2.6 2.7-4.3 6.2-5 10.1l15.6 21.6c1 0.2 2 0.3 3.1 0.3 2.9 0 5.7-0.7 8.1-1.9z"/>
	<path id="Layer" class="s0" d="m268.4 361.5c-1.1-2.5-4.1-3.6-6.6-2.4-2.5 1.1-3.6 4.1-2.4 6.6 0.7 1.6 1.6 3.2 2.4 4.8 0.9 1.6 2.6 2.6 4.4 2.6 0.8 0 1.6-0.2 2.4-0.7 2.4-1.3 3.3-4.4 1.9-6.8-0.7-1.3-1.4-2.7-2-4.1zm-5.1-17.6q-0.3-2.3-0.3-4.2v-0.2c0-2.7-2.2-5-4.9-5h-0.1c-2.7 0-5 2.2-5 4.9v0.3q0 2.5 0.3 5.3c0.3 2.6 2.5 4.5 5 4.5 0.2 0 0.4 0 0.5-0.1 2.8-0.3 4.8-2.8 4.5-5.5zm22.2 38.3q-1.9-1.2-3.6-2.6c-2.2-1.8-5.3-1.5-7.1 0.7-1.8 2.1-1.4 5.3 0.7 7q2.2 1.8 4.4 3.3c0.9 0.6 1.8 0.8 2.8 0.8 1.6 0 3.2-0.8 4.2-2.2 1.5-2.4 0.8-5.5-1.4-7zm21 6.4c-1.5-0.1-3.1-0.2-4.5-0.4-2.8-0.4-5.3 1.6-5.6 4.3-0.4 2.8 1.6 5.3 4.3 5.6 1.8 0.3 3.6 0.4 5.4 0.4h0.1c2.7 0 4.9-2.1 5-4.9 0.2-2.7-2-5-4.7-5zm-35.2-75.6c-2.4-1.4-5.5-0.6-6.9 1.7q-1.3 2.2-2.6 4.2c-1.4 2.3-0.7 5.4 1.6 6.9 0.8 0.5 1.8 0.7 2.7 0.7 1.6 0 3.3-0.8 4.2-2.3q1.4-2.2 2.6-4.4c1.5-2.3 0.7-5.4-1.6-6.8zm15.2-42.2c-0.6 1.5-1.2 3.1-1.8 4.6-1.1 2.5 0.1 5.5 2.7 6.5 0.6 0.3 1.3 0.4 1.8 0.4 2 0 3.9-1.1 4.7-3.1 0.6-1.6 1.3-3.2 1.8-4.8 1-2.5-0.3-5.4-2.8-6.4q-1.1-0.4-2.3-0.3l-2.1 0.7c-0.9 0.4-1.7 1.3-2 2.4z"/>
	<path id="Layer" fill-rule="evenodd" class="s0" d="m450.9 209.8l-74.3 228.9h-240.7l-74.3-228.9 194.7-141.5zm-189.7-90.3l139.7 101.4 21.6-7.1-161.3-117.1zm0 139.6c2.9 1.1 5.3 2.9 7.1 5.4l24.8-8.2c-0.7-1.1-1-2.6-0.6-4 0.4-1.6 0.8-3.2 1.1-4.7 0.5-2.7 3.2-4.4 5.9-3.8 2.7 0.5 4.4 3.2 3.9 5.9-0.3 1.1-0.5 2.3-0.8 3.5l86.5-28.4-127.9-93zm-112.6 153.8l96.3-130.5c-2.2-2.5-3.5-5.8-3.5-9.4v-0.1l-48.8-15.7c1.4-3 2.4-6.2 3-9.6l49.3 15.9c1.7-2 3.8-3.5 6.3-4.4v-70.1q-0.5 0.1-1.1 0.1h-0.2c-1.5-0.1-3.1-0.1-4.6 0-2.8 0.1-5.1-2.1-5.2-4.9-0.1-2.7 2.1-5 4.9-5.1q2.7-0.1 5.4 0c0.3 0 0.5 0.1 0.8 0.1v-82.6l-161.1 117.1 36.4 11.7c-1.5 3-2.5 6.2-3.2 9.5l-36.4-11.7zm8.2 5.8h196.6l-12-16.7q-2.1 0.3-4.2 0.3c-15.9 0-28.9-13-28.9-28.9 0-4.6 1.1-9.1 3.1-13l-52.6-72.8c-0.8 0.1-1.7 0.2-2.5 0.2-0.9 0-1.8-0.1-2.7-0.2l-96.8 131.1zm268.7-195.4l-134.7 44.2q-1.2 0.1-2.1 0.7l-17.7 5.8c-0.2 3.2-1.5 6.2-3.5 8.5l8.5 11.8c0.2-0.4 0.4-0.8 0.6-1.1 1.2-2.5 4.2-3.5 6.7-2.2 2.4 1.2 3.4 4.2 2.2 6.7-0.8 1.4-1.6 3-2.4 4.5-0.2 0.3-0.4 0.7-0.7 1l35.3 48.8c5.1-4.7 12-7.6 19.5-7.6 16 0 28.9 12.9 28.9 28.9 0 10.8-6 20.3-14.8 25.2l11.9 16.6zm-91.4 168.7c1 0.1 2 0.2 3.1 0.2 2.9 0 5.7-0.6 8.1-1.8 6.4-3.1 10.8-9.6 10.8-17.1 0-10.4-8.4-18.9-18.9-18.9-5.3 0-10.2 2.2-13.6 5.8-2.6 2.7-4.5 6.2-5.1 10.1q-0.2 1.5-0.2 3c0 9.4 6.9 17.2 15.8 18.7z"/>
	<path id="Layer" fill-rule="evenodd" class="s0" d="m187.3 210.9c2 1.9 2.1 5 0.2 7l-0.2 0.2c-2.1-2.5-4.6-4.8-7.4-6.7l0.4-0.4c1.9-2 5.1-2.1 7-0.1zm112.4 7.9c2.7-0.2 5.2 1.7 5.5 4.4q0.3 2.7 0.3 5.4c0.1 2.9-2.1 5.1-4.8 5.2h-0.2c-2.6 0-4.9-2.2-5-4.8 0-1.6-0.1-3.2-0.3-4.6-0.3-2.8 1.7-5.3 4.5-5.6zm-104.8-14.5c-1.6-2.2-1.1-5.3 1.1-7q2.2-1.6 4.3-3c2.3-1.5 5.5-0.9 7 1.4 1.5 2.4 0.9 5.4-1.4 6.9-1.4 1-2.7 1.9-4 2.8-0.9 0.6-1.9 0.9-2.9 0.9-1.5 0.1-3.1-0.7-4.1-2zm73.1-11.5c-2.6-1-3.9-3.8-3-6.4 1-2.6 3.8-3.9 6.4-3 1.6 0.6 3.3 1.3 5 2 2.5 1.1 3.6 4 2.5 6.6-0.9 1.9-2.7 3-4.6 3-0.6 0-1.4-0.1-2-0.4-1.4-0.6-2.9-1.2-4.3-1.8zm18.9 11.7c-1.8-2-1.6-5.2 0.4-7 2.1-1.9 5.2-1.7 7.1 0.4 1.3 1.4 2.4 2.9 3.5 4.5 1.5 2.2 0.9 5.3-1.4 6.9-0.9 0.6-1.8 0.8-2.8 0.8-1.5 0-3.2-0.8-4.1-2.2-0.8-1.2-1.7-2.3-2.7-3.4zm-70.8-13.4c-1-2.6 0.3-5.5 2.9-6.5 1.6-0.7 3.3-1.3 5-1.9 2.6-0.8 5.4 0.6 6.3 3.3 0.8 2.6-0.6 5.5-3.3 6.3-1.5 0.5-3 1-4.4 1.6q-0.9 0.4-1.8 0.3c-2 0-3.8-1.1-4.7-3.1zm74.6 76.5l-2.1 0.7c0.7-0.4 1.4-0.6 2.1-0.7z"/>
	<path id="Layer" class="s0" d="m183.1 254.2c1.5-2.9 2.5-6.2 2.9-9.6l-49.8-16c-1.6 2.8-2.7 6.1-3.2 9.4z"/>
	<path id="Layer" fill-rule="evenodd" class="s0" d="m196.1 241.8c0 2-0.2 4-0.5 5.9-0.6 3.3-1.6 6.5-3 9.5-5.8 12.6-18.6 21.3-33.3 21.3-20.2 0-36.7-16.5-36.7-36.7 0-2.4 0.3-4.7 0.7-6.9 0.7-3.3 1.7-6.5 3.2-9.5 6-12 18.5-20.3 32.9-20.3 7.6 0 14.7 2.3 20.5 6.3 2.8 1.9 5.3 4.1 7.5 6.7 5.4 6.4 8.7 14.6 8.7 23.7zm-10-0.1c0-14.6-12-26.6-26.7-26.6-10 0-18.6 5.4-23.2 13.5-1.7 2.8-2.8 6-3.3 9.4q-0.2 1.8-0.2 3.7c0 14.7 12 26.7 26.7 26.7 10.2 0 19.2-5.8 23.6-14.3 1.6-2.9 2.6-6.2 2.9-9.6 0.1-0.9 0.2-1.8 0.2-2.8z"/>
</svg>