<svg version="1.2" xmlns="http://www.w3.org/2000/svg" viewBox="0 0 512 512" width="512" height="512">
	<title>availability-svgrepo-com-svg</title>
	<style>
		.s0 { fill: #ffffff } 
	</style>
	<path id="Layer" fill-rule="evenodd" class="s0" d="m117.8 177.1c-14.2 0-25.6-11.4-25.6-25.6 0-14.2 11.4-25.6 25.6-25.6 14.1 0 25.5 11.4 25.5 25.6 0 14.2-11.4 25.6-25.5 25.6zm15.5-25.6c0-8.6-6.9-15.6-15.5-15.6-8.7 0-15.6 7-15.6 15.6 0 8.6 6.9 15.6 15.6 15.6 8.6 0 15.5-7 15.5-15.6z"/>
	<path id="Layer" fill-rule="evenodd" class="s0" d="m280.5 151.9c0 12-9.8 21.8-21.9 21.8h-71.3c-12 0-21.8-9.8-21.8-21.8 0-12 9.8-21.8 21.8-21.8h71.3c12.1 0 21.9 9.8 21.9 21.8zm-10 0c0-6.6-5.4-11.9-11.9-11.9h-71.3c-6.5 0-11.8 5.3-11.8 11.9 0 6.5 5.3 11.8 11.8 11.8h71.3c6.5 0 11.9-5.3 11.9-11.8z"/>
	<path id="Layer" fill-rule="evenodd" class="s0" d="m49.7 129.1c0-19.4 15.7-35 35-35h342.9c19.3 0 35 15.6 35 35v250c0 19.3-15.7 35-35 35h-342.9c-19.3 0-35-15.7-35-35zm392.9 249.9v-179.9h-372.9v180c0 8.2 6.7 15 15 15h342.9c8.3 0 15-6.8 15-15zm0.1-250c0-8.3-6.8-15-15-15h-342.9c-8.2 0-15 6.7-15 15v60h372.9z"/>
	<path id="Layer" class="s0" d="m229.9 312.3l-57.1-22.6 57.1-21.9v-23.3l-81.8 35.5v19.7l81.9 35.7zm54.4-84.9h-17.2l-29.6 123.6h16.9zm89.5 52.7l-82-35.5 0.1 22.9 57.1 22.3-57.1 22.5v23.1l82-35.7z"/>
</svg>