<svg version="1.2" xmlns="http://www.w3.org/2000/svg" viewBox="0 0 512 512" width="512" height="512">
	<title>cloud-backup-svgrepo-com-svg</title>
	<style>
		.s0 { fill: #ffffff } 
	</style>
	<path id="Layer" class="s0" d="m411.8 383.3q-0.1-2.5 0.7-4.7h-97v-169.9c0-2.8-2.3-5-5-5-2.8 0-5 2.2-5 5v179.9h107.3c-0.6-1.6-1.1-3.5-1.1-5.4z"/>
	<path id="Layer" class="s0" d="m426.1 368.9c-6.3 0.1-11.6 4.1-13.6 9.8q-0.7 2.1-0.7 4.6 0 2.8 1 5.3c2.2 5.3 7.3 9 13.4 9 7.8 0 14.3-6.4 14.3-14.4 0-7.9-6.5-14.3-14.4-14.2zm-76.1-240.1c1-2.6-0.2-5.5-2.7-6.6-39-16.1-67.7-7.8-84.8 2.1-18.6 10.6-27.9 25.1-28.2 25.7-1.5 2.4-0.8 5.4 1.5 6.9q1.3 0.8 2.7 0.8c1.7 0 3.3-0.8 4.2-2.3 0.1-0.2 8.6-13.2 25.1-22.6 22.1-12.5 47.5-12.9 75.7-1.3 2.5 1 5.5-0.2 6.5-2.7z"/>
	<path id="Layer" fill-rule="evenodd" class="s0" d="m440.4 424.3c0.1 8-6.4 14.4-14.3 14.4-6.1 0-11.3-3.9-13.4-9.3h-155.4v-70.6h-33.5v46.9h-98.5c-2.4 9.5-11 16.5-21.2 16.5-12 0-21.8-9.8-21.8-21.8 0-12.1 9.8-21.9 21.8-21.9 10.5 0 19.2 7.4 21.4 17.2h88.4v-37h-54.2c-55.3 0-100.3-45-100.3-100.3 0-55.4 45-100.4 100.3-100.4 4.7 0 9.5 0.4 14.1 1 22.1-54.5 75.2-90.6 134.6-90.6 38.7 0 75.2 15.1 102.6 42.5 27.4 27.4 42.5 63.9 42.5 102.6 0 38.8-15.1 75.2-42.5 102.6-25.7 25.8-59.3 40.6-95.4 42.4v-20.1c65.7-3.8 117.9-58.3 117.9-124.9 0-69-56.2-125.1-125.2-125.1-50.2 0-95.2 29.9-114.9 75.4 4.2 1.5 8.3 3.3 12.3 5.3 13.6 7.1 25.7 17.4 34.8 29.8 3.3 4.4 2.3 10.7-2.1 14-4.5 3.2-10.8 2.3-14-2.2-15.1-20.5-39.3-32.8-64.8-32.8-44.3 0-80.3 36.1-80.3 80.4 0 44.3 36 80.3 80.3 80.3h54.2v-69.7c0-2.7 2.3-5 5-5 2.8 0 5 2.3 5 5v69.7h33.5v-69.7c0-2.7 2.2-5 5-5 2.7 0 5 2.3 5 5v69.7h38.2v20h-38.2v60.7h145.4c2-5.5 7.2-9.4 13.4-9.4 7.9 0 14.4 6.4 14.4 14.4zm-324.5-24.1c0-1.5-0.3-3-0.9-4.4-1.7-4.3-6-7.4-11-7.4-6.5 0-11.8 5.3-11.8 11.8 0 6.6 5.3 11.9 11.8 11.9 4.8 0 8.9-2.8 10.8-6.9 0.7-1.5 1.1-3.2 1.1-5z"/>
</svg>