<svg version="1.2" xmlns="http://www.w3.org/2000/svg" viewBox="0 0 1000 1000" width="1000" height="1000">
	<title>teamwork-svgrepo-com-svg</title>
	<style>
		.s0 { fill: #a84cb7 } 
		.s1 { fill: #f9c03f } 
		.s2 { fill: #ec5453 } 
		.s3 { fill: #84dbff } 
		.s4 { fill: #2c98f0 } 
		.s5 { fill: #ffffff } 
	</style>
	<path id="Layer" class="s0" d="m500 1000c-276.5 0-500-223.5-500-500 0-276.5 223.5-500 500-500 276.5 0 500 223.5 500 500 0 276.5-223.5 500-500 500z"/>
	<path id="Layer" class="s1" d="m610.2 248c-26.7 26-66.9 43.3-110.2 43.3-44.1 0-83.5-16.5-110.2-42.5 4.7-14.2 14.9-26 28.3-33.1l42.5-20.4c1.6-5.5 7.9-13.4 7.9-13.4-3.1-4.7-5.5-9.5-7.9-15-3.1 0-7.1-3.1-9.4-7.1-2.4-3.9-1.6-8.6 0-11.8-6.3-18.1-10.3-45.6 11.8-65.3l-11 2.3c0 0 13.4-24.4 40.1-15.7 0 0-2.3-3.9-11-6.3 0 0 11.8-5.5 18.9 3.1 0 0 3.9-3.1 0-6.3 0 0 20.5 0.8 39.4 18.2 24.4 22.8 18.1 52.7 10.2 72.4 0.8 2.4 0.8 6.3-0.8 9.4-1.6 4-4.7 6.3-7.9 7.1-1.5 2.4-7 11.8-8.6 15 0 0 7.1 7.9 7.9 13.4l42.5 20.4c12.6 6.3 22.8 18.2 27.5 32.3z"/>
	<path id="Layer" class="s2" d="m610.2 898.4c-26.7 26-66.9 43.3-110.2 43.3-44.1 0-83.5-16.5-110.2-42.5 4.7-14.2 14.9-26 28.3-33.1l42.5-20.4c1.6-5.5 7.9-13.4 7.9-13.4-3.1-4.7-5.5-9.5-7.9-15-3.1 0-7.1-3.1-9.4-7.1-2.4-3.9-1.6-8.6 0-11.8-7.1-18.1-11-44.9 11-65.3l-11 2.3c0 0 13.4-24.4 40.1-15.7 0 0-2.3-4-11-6.3 0 0 11.8-5.5 18.9 3.1 0 0 3.9-3.1 0-6.3 0 0 20.5 0.8 39.4 18.1 24.4 22.9 18.1 52.8 10.2 72.5 0.8 2.3 0.8 6.3-0.8 9.4-1.5 4-4.7 6.3-7.8 7.1-1.6 2.4-7.1 11.8-8.7 15 0 0 7.1 7.9 7.9 13.4l42.5 20.4c13.4 5.6 23.6 17.4 28.3 32.3z"/>
	<path id="Layer" class="s3" d="m940.9 573.2c-26.7 26-66.9 43.3-110.2 43.3-44.1 0-83.5-16.5-110.2-42.5 4.7-14.2 14.9-26 28.3-33.1l42.5-20.4c1.6-5.5 7.9-13.4 7.9-13.4-3.1-4.7-5.5-9.5-7.9-15-3.1 0-7-3.1-9.4-7.1-2.4-3.9-1.6-8.6 0-11.8-7.1-18.1-11-44.9 11-65.3l-11 2.3c0 0 13.4-24.4 40.1-15.7 0 0-2.3-3.9-11-6.3 0 0 11.8-5.5 18.9 3.1 0 0 4-3.1 0-6.3 0 0 20.5 0.8 39.4 18.1 24.4 22.9 18.1 52.8 10.2 72.5 0.8 2.4 0.8 6.3-0.8 9.4-1.5 4-4.7 6.3-7.8 7.1-1.6 2.4-7.1 11.8-8.7 15 0 0 7.1 7.9 7.9 13.4l42.5 20.4c13.4 5.6 23.6 17.4 28.3 32.3z"/>
	<path id="Layer" class="s4" d="m279.5 573.2c-26.7 26-66.9 43.3-110.2 43.3-44.1 0-83.5-16.5-110.2-42.5 4.7-14.2 14.9-26 28.3-33.1l42.5-20.4c1.6-5.5 7.9-13.4 7.9-13.4-3.2-4.7-5.5-9.5-7.9-15-3.1 0-7.1-3.1-9.4-7.1-2.4-3.9-1.6-8.6 0-11.8-7.1-18.1-11.1-44.9 11-65.3l-11 2.3c0 0 13.4-24.4 40.1-15.7 0 0-2.3-3.9-11-6.3 0 0 11.8-5.5 18.9 3.1 0 0 3.9-3.1 0-6.3 0 0 20.5 0.8 39.4 18.1 24.4 22.9 18.1 52.8 10.2 72.5 0.8 2.4 0.8 6.3-0.8 9.4-1.6 4-4.7 6.3-7.9 7.1-1.5 2.4-7 11.8-8.6 15 0 0 7.1 7.9 7.9 13.4l42.5 20.4c13.4 5.6 23.6 18.2 28.3 32.3z"/>
	<path id="Layer" class="s5" d="m683.5 483.5v33.8l-33.9 10.3c-3.9 21.2-12.6 41.7-24.4 59l15.7 30.7-23.6 23.6-30.7-14.9c-17.3 11.8-37 20.5-59 24.4l-11.1 33.1h-33.8l-10.3-33.9c-21.2-3.9-41.7-12.6-59-24.4l-30.7 15.7-23.6-23.6 15.7-30.7c-11.8-17.3-20.5-37-24.4-59l-33.1-11.1v-33.8l33.1-11c3.9-21.3 12.6-41.8 24.4-59.1l-15.7-30.7 23.6-23.6 30.7 15.7c17.3-11.8 37-20.5 59-24.4l11.1-33.1h33.8l11 33.1c21.3 3.9 41.8 12.6 59.1 24.4l30.7-15.7 23.6 23.6-15.7 31.5c11.8 17.3 20.5 37 24.4 59z"/>
	<path id="Layer" class="s0" d="m500 584.3c-46.6 0-84.3-37.7-84.3-84.3 0-46.6 37.7-84.3 84.3-84.3 46.6 0 84.3 37.7 84.3 84.3 0 46.6-37.7 84.3-84.3 84.3z"/>
</svg>