<svg version="1.2" xmlns="http://www.w3.org/2000/svg" viewBox="0 0 512 512" width="512" height="512">
	<title>email-sign-svgrepo-com-svg</title>
	<style>
		.s0 { fill: #2c98f0 } 
		.s1 { fill: none } 
	</style>
	<path id="Layer" fill-rule="evenodd" class="s0" d="m448 234.7c0 142.9-91.7 136.5-102.4 136.5-12.8 0-23.5-2.1-34.1-8.5-8.6-6.4-17.1-12.8-21.4-23.5-8.5 10.7-17 19.2-27.7 23.5-10.7 6.4-21.3 8.5-34.1 8.5-10.7 0-21.4-2.1-29.9-6.4-8.5-4.3-17.1-12.8-21.3-21.3q-9.6-12.8-12.8-32c-2.2-12.8-2.2-27.8-2.2-42.7 2.2-19.2 6.4-36.3 12.8-53.3 6.4-15 15-29.9 23.5-40.6q12.8-16 32-25.6c12.8-6.4 25.6-8.5 38.4-8.5 42.7 0 66.1 21.3 70.4 25.6l-10.7 132.3c0 8.5-4.2 38.4 23.5 38.4 8.5 0 51.2-10.7 51.2-100.3 0-2.1 19.2-149.3-140.8-149.3-128-2.2-155.7 123.7-155.7 168.5 0 179.2 113 170.7 149.3 170.7 42.7 0 66.1-8.6 70.4-10.7l8.5 38.4c-4.2 4.3-25.6 14.9-78.9 14.9-66.1 0-192-2.1-192-213.3 0-29.9 17.1-213.3 202.7-213.3 177 0 181.3 162.1 181.3 192zm-232.5 34.1c-2.2 19.2 0 36.3 4.2 46.9 4.3 10.7 12.8 15 25.6 15 23.5 0 36.3-29.9 38.4-38.4l10.7-108.8c-2.1 0-14.9-2.2-19.2-2.2-17.1 0-32 8.6-40.5 23.5q-16 19.2-19.2 64z"/>
	<path id="Layer" class="s1" d="m0 0h512v512h-512z"/>
</svg>