<svg version="1.2" xmlns="http://www.w3.org/2000/svg" viewBox="0 0 1000 1000" width="1000" height="1000">
	<title>puzzle-jigsaw-svgrepo-com-svg</title>
	<style>
		.s0 { fill: #ec5453 } 
		.s1 { fill: #f9c03f } 
		.s2 { fill: #2c98f0 } 
		.s3 { fill: #84dbff } 
	</style>
	<path id="Layer" class="s0" d="m964.3 535.7h-149.7c-27.4 0-44.6-29.8-30.9-53.6 22.5-38.9-5-89.2-51.6-89.2-46.5 0-74 50.3-51.5 89.2 13.7 23.8-3.5 53.6-31 53.6h-149.6c-19.7 0-35.7-16-35.7-35.7v-101.6c-72.8 6.7-142.9-50-142.9-130.5 0-80.7 70.2-137.3 142.9-130.6v-101.6c0-19.7 16-35.7 35.7-35.7h464.3c19.7 0 35.7 16 35.7 35.7v464.3c0 19.7-16 35.7-35.7 35.7z"/>
	<path id="Layer" class="s1" d="m267.9 678.6c-80.5 0-137.3-70-130.6-142.9h-101.6c-19.7 0-35.7-16-35.7-35.7v-464.3c0-19.7 16-35.7 35.7-35.7h464.3c19.7 0 35.7 16 35.7 35.7v149.7c0 27.4-29.8 44.6-53.6 30.9-38.9-22.5-89.2 5.1-89.2 51.6 0 46.6 50.4 74 89.2 51.5 23.8-13.7 53.6 3.5 53.6 31v149.6c0 19.7-16 35.7-35.7 35.7h-101.6c6.7 72.6-49.7 142.9-130.5 142.9z"/>
	<path id="Layer" class="s2" d="m500 1000h-464.3c-19.7 0-35.7-16-35.7-35.7v-464.3c0-19.7 16-35.7 35.7-35.7h149.7c27.4 0 44.6 29.8 30.9 53.6-22.5 38.9 5.1 89.2 51.6 89.2 46.6 0 74-50.4 51.5-89.2-13.7-23.8 3.5-53.6 31-53.6h149.6c19.7 0 35.7 16 35.7 35.7v101.5c72.9-6.6 142.9 50 142.9 130.6 0 80.7-70.1 137.3-142.9 130.6v101.6c0 19.7-16 35.7-35.7 35.7z"/>
	<path id="Layer" class="s3" d="m964.3 1000h-464.3c-19.7 0-35.7-16-35.7-35.7v-149.7c0-27.5 29.8-44.6 53.6-30.9 38.9 22.5 89.2-5.1 89.2-51.6 0-46.5-50.3-74-89.2-51.6-23.8 13.8-53.6-3.4-53.6-30.9v-149.6c0-19.7 16-35.7 35.7-35.7h101.6c-6.7-72.8 49.9-142.9 130.5-142.9 80.7 0 137.3 70.1 130.6 142.9h101.6c19.7 0 35.7 16 35.7 35.7v464.3c0 19.7-16 35.7-35.7 35.7z"/>
</svg>