<svg version="1.2" xmlns="http://www.w3.org/2000/svg" viewBox="0 0 1000 1000" width="1000" height="1000">
	<title>rocket-svgrepo-com-svg</title>
	<style>
		.s0 { fill: #ec5453 } 
	</style>
	<path id="Layer" fill-rule="evenodd" class="s0" d="m509.1 759.1c-7.1 2.6-14.2 4-21.6 4-33.5 0-60.5-26.9-114.4-80.7l-5.8-5.7 85.2-86.5c12.1-12.3 12-32.1-0.3-44.2-12.3-12.1-32.1-12-44.2 0.3l-84.9 86.2-7.3-7.2c-53.9-53.8-80.9-80.7-80.9-114.1 0-8 1.6-15.7 4.7-23.4 9.8-24.5 35.2-49.8 76.2-90.7l243.6-242.9c35.1-35 52.7-52.4 75-61.7 22.3-9.2 47.1-9.2 96.7-9.2h23.7c76.3 0 114.5 0 138.2 23.7 23.7 23.6 23.7 61.6 23.7 137.7v23.6c0 49.5 0 74.2-9.3 96.5-9.2 22.2-26.8 39.7-61.8 74.7l-243.7 242.9c-42 41.9-67.6 67.5-92.8 76.7zm207.3-476.1c-31.6-31.5-82.8-31.5-114.5 0-31.6 31.5-31.6 82.6 0 114.1 31.7 31.5 82.9 31.5 114.5 0 31.6-31.5 31.6-82.6 0-114.1z"/>
	<g id="Layer" style="opacity: .5">
		<path id="Layer" class="s0" d="m376.4 248.5l-105.9 105.6c-19.5 19.4-37.4 37.2-51.5 53.3-9.1 10.4-18.1 21.7-25.8 34.2l-1-1c-2-2-2.9-3-3.9-3.9-18.5-17.9-40.1-32.1-63.9-41.9-1.2-0.5-2.5-1-5.1-2l-15.8-6.3c-21.4-8.5-27-36-10.8-52.2 46.7-46.5 102.7-102.4 129.8-113.6 23.8-9.9 49.6-13.2 74.4-9.5 22.8 3.3 44.4 15 79.5 37.3z"/>
		<path id="Layer" class="s0" d="m557.4 804.7c8.5 8.7 14.2 14.8 19.3 21.3 6.8 8.7 12.8 17.8 18.1 27.5 5.9 10.8 10.5 22.3 19.7 45.4 7.5 18.9 32.5 23.8 46.9 9.4l3.5-3.5c46.7-46.5 102.8-102.4 114-129.3 9.9-23.8 13.2-49.5 9.6-74.3-3.4-22.7-15.1-44.2-37.4-79.2l-106.3 106c-20 19.8-38.2 38-54.8 52.3-9.9 8.6-20.7 17.1-32.6 24.4z"/>
	</g>
</svg>