<svg version="1.2" xmlns="http://www.w3.org/2000/svg" viewBox="0 0 512 512" width="512" height="512">
	<title>machine-vision-svgrepo-com-svg</title>
	<style>
		.s0 { fill: #e6e6e6 } 
		.s1 { fill: #ffffff } 
	</style>
	<path id="Layer" class="s0" d="m72.8 368h366.3c8.3 0 15-6.8 15-15v-11.1h-396.3v11.1c0 8.3 6.8 15 15 15z"/>
	<path id="Layer" fill-rule="evenodd" class="s1" d="m37.9 111.4c0-19.3 15.6-35 35-35h366.3c19.3 0 34.9 15.7 34.9 35v241.6c0 19.3-15.6 35-35 35h-366.3c-19.3 0-34.9-15.7-34.9-35zm416.3 0c-0.1-8.2-6.8-15-15.1-15h-366.3c-8.2 0-14.9 6.8-14.9 15v241.6c0 8.2 6.7 15 15 15h366.3c8.2 0 14.9-6.8 14.9-15zm-115.1 324.1h-166c-5.5 0-10-4.5-10-10 0-5.5 4.5-10 10-10h166c5.5 0 10 4.5 10 10 0 5.5-4.5 10-10 10z"/>
	<path id="Layer" class="s1" d="m63.5 331.4c-1.3 0-2.7-0.6-3.6-1.6-1.9-2.1-1.8-5.2 0.3-7.1l118.3-109.8 53 58.1 129.4-145.4 91.9 98.2c1.9 2 1.8 5.2-0.2 7-2 1.9-5.2 1.8-7.1-0.2l-84.4-90.2-129.5 145.5-53.8-58.9-110.8 103c-1 0.9-2.3 1.4-3.5 1.4z"/>
	<path id="Layer" class="s1" d="m218.4 360.1l-80.8-0.1c-2.5 0-4.5-2-4.5-4.5 0-2.5 2-4.5 4.5-4.5h80.8c2.5 0 4.5 2 4.5 4.5 0 2.5-2.1 4.5-4.5 4.5zm-108.1 0h-13.3c-2.5 0-4.5-2-4.5-4.5 0-2.5 2-4.5 4.5-4.5h13.3c2.5 0 4.5 2 4.5 4.5 0 2.5-2.1 4.5-4.5 4.5z"/>
</svg>