<svg version="1.2" xmlns="http://www.w3.org/2000/svg" viewBox="0 0 512 512" width="512" height="512">
	<title>mobile-app-svgrepo-com-svg</title>
	<style>
		.s0 { fill: #ffffff } 
	</style>
	<path id="Layer" class="s0" d="m216.6 408.4c-7.1 0-12.9-5.8-12.9-12.9 0-7.1 5.8-12.9 12.9-12.9 7.1 0 12.9 5.8 12.9 12.9 0 7.1-5.8 12.9-12.9 12.9z"/>
	<path id="Layer" fill-rule="evenodd" class="s0" d="m402 352.3c-20.3 0-36.7-16.4-36.7-36.7 0-20.3 16.4-36.7 36.7-36.7 20.3 0 36.7 16.4 36.7 36.7 0 20.3-16.4 36.7-36.7 36.7zm26.7-36.7c0-14.8-11.9-26.7-26.7-26.7-14.8 0-26.7 11.9-26.7 26.7 0 14.8 11.9 26.7 26.7 26.7 14.8 0 26.7-11.9 26.7-26.7z"/>
	<path id="Layer" fill-rule="evenodd" class="s0" d="m92.6 213.7l-7.2 2.4c0.7 2.2 1.1 4.5 1.1 6.9 0 12.4-10 22.4-22.4 22.4-12.3 0-22.3-10-22.3-22.4 0-12.3 10-22.3 22.3-22.3 6.3 0 11.9 2.5 15.9 6.6l9.4-3.1c2.6-0.9 5.4 0.5 6.3 3.1 0.9 2.7-0.5 5.5-3.1 6.4zm-16.1 9.3c0-6.9-5.5-12.4-12.3-12.4-6.9 0-12.4 5.5-12.4 12.4 0 6.8 5.5 12.3 12.4 12.3 6.8 0 12.3-5.5 12.3-12.3zm84.8-3q-0.7 0.2-1.4 0.2c-2.1 0-4.1-1.3-4.8-3.5l-1.6-5.1q-1.3 0.2-2.6 0.2c-12.4 0-22.4-10-22.4-22.4 0-12.3 10-22.3 22.4-22.3 12.3 0 22.3 10 22.3 22.3 0 7.9-4.1 14.8-10.3 18.8l1.8 5.5c0.8 2.6-0.6 5.4-3.3 6.3zm1.8-30.6c0-6.8-5.5-12.3-12.3-12.3-6.8 0-12.4 5.5-12.4 12.3 0 6.8 5.6 12.4 12.4 12.4 1.4 0 2.7-0.3 4-0.7 0.1-0.1 0.4-0.2 0.5-0.2 4.6-1.9 7.8-6.3 7.8-11.5zm1.1 55.9l-3-9.5c-0.9-2.6 0.6-5.4 3.2-6.3 2.6-0.8 5.4 0.6 6.3 3.3l3 9.5c0.8 2.6-0.6 5.4-3.3 6.3q-0.7 0.2-1.5 0.2c-2.1 0-4.1-1.3-4.7-3.5zm61.7 8.2c1.7 2.2 1.3 5.4-0.9 7l-4 3.1c-0.9 0.6-2 1-3 1-1.5 0-3-0.6-4-2-1.8-2.1-1.3-5.3 0.9-6.9l4-3.1c2.2-1.7 5.3-1.3 7 0.9zm38.9-23.2l-4 3.1c-0.9 0.6-2 1-3 1-1.5 0-3-0.7-4-2-1.7-2.2-1.3-5.3 0.9-7l4-3c2.2-1.7 5.4-1.3 7 0.9 1.7 2.2 1.3 5.4-0.9 7zm-19 8.1c1.7 2.2 1.3 5.3-0.9 7l-4 3.1c-0.9 0.6-2 1-3 1-1.5 0-3-0.7-4-2-1.7-2.2-1.3-5.3 0.9-7l4-3c2.2-1.7 5.4-1.3 7 0.9zm-39.8 30.3c1.7 2.2 1.2 5.4-0.9 7l-2.8 2.1q0.8 2.7 0.8 5.5c0 11.2-9.1 20.3-20.4 20.3-11.2 0-20.3-9.1-20.3-20.3 0-6.8 3.4-12.8 8.5-16.5l-0.7-2.4c-0.9-2.7 0.6-5.5 3.2-6.3 2.7-0.9 5.5 0.6 6.3 3.2l0.6 1.8q1.2-0.1 2.4-0.1c5.7 0 10.8 2.4 14.5 6.1l1.8-1.3c2.2-1.8 5.3-1.3 7 0.9zm-12.9 14.6c0-5.7-4.7-10.3-10.4-10.3-5.6 0-10.3 4.6-10.3 10.3 0 5.7 4.7 10.3 10.3 10.3 5.7 0 10.4-4.6 10.4-10.3z"/>
	<path id="Layer" fill-rule="evenodd" class="s0" d="m469.8 244.9l-0.1 155.7c0 20.6-17 37.4-37.8 37.4h-294.3c-20.9 0-37.9-17-37.9-37.9v-292.7c0-20.9 17-37.9 37.9-37.9h158c20.9 0 37.9 17 37.9 37.9v100h98.4c20.9 0 37.9 16.8 37.9 37.5zm-156.3 155.3v-170.7l-3.3-3.8c-1.8-2.1-1.5-5.3 0.6-7.1 0.8-0.6 1.8-1 2.7-1.1v-110.1c0-9.9-8-17.9-17.9-17.9h-157.9c-9.9 0-17.9 8.1-17.9 17.9v86.9c1.9 0.2 3.7 1.5 4.3 3.4 0.9 2.7-0.5 5.5-3.1 6.4l-1.3 0.4v195.6c0 9.9 8.1 17.9 17.9 17.9h158c9.9 0 17.9-8 17.9-17.9zm136.3-155.3c0-9.6-8-17.4-17.9-17.4h-98.4v10.2c0.2 0.2 0.4 0.4 0.5 0.6l3.3 3.8c1.8 2.1 1.5 5.2-0.6 7-0.9 0.8-2 1.2-3.2 1.2v149.9c0 6.5-1.6 12.5-4.5 17.9h102.9c9.9 0 17.9-7.8 17.9-17.5z"/>
	<path id="Layer" class="s0" d="m366.4 276.3c-1.8-2.2-4.9-2.4-7-0.6-2.1 1.8-2.4 4.9-0.6 7l3.3 3.9c1 1.1 2.4 1.7 3.8 1.7 1.1 0 2.3-0.4 3.3-1.2 2.1-1.8 2.3-4.9 0.5-7zm-16.2-19.1c-1.9-2-5-2.3-7.1-0.5-2.1 1.8-2.4 4.9-0.6 7.1l3.3 3.8c1 1.1 2.4 1.7 3.8 1.7 1.1 0 2.3-0.4 3.3-1.2 2.1-1.8 2.3-4.9 0.5-7z"/>
	<path id="Layer" class="s0" d="m246.8 111.5h-60.5c-2.7 0-5-2.3-5-5 0-2.8 2.3-5 5-5h60.5c2.8 0 5 2.3 5 5 0 2.8-2.2 5-5 5z"/>
	<path id="Layer" class="s0" d="m298.4 221.5c-17.3 0-31.2-14-31.2-31.2 0-17.3 13.9-31.2 31.2-31.2 17.3 0 31.2 13.9 31.2 31.2 0 17.2-13.9 31.2-31.2 31.2z"/>
	<path id="Layer" fill-rule="evenodd" class="s0" d="m298.6 230.9c-22.3 0-40.4-18-40.4-40.4 0-22.4 18.1-40.4 40.4-40.4 22.4 0 40.5 18 40.5 40.4 0 22.4-18.1 40.4-40.5 40.4zm30.5-40.4c0-16.8-13.6-30.4-30.4-30.4-16.8 0-30.5 13.6-30.5 30.4 0 16.8 13.7 30.4 30.5 30.4 16.8 0 30.4-13.6 30.4-30.4z"/>
</svg>